<svg id="visual" viewBox="0 0 960 540" width="960" height="540" xmlns="http://www.w3.org/2000/svg" xmlns:xlink="http://www.w3.org/1999/xlink" version="1.1"><path d="M0 39L14.5 41.7C29 44.3 58 49.7 87.2 54.2C116.3 58.7 145.7 62.3 174.8 58.7C204 55 233 44 262 44.8C291 45.7 320 58.3 349 64.7C378 71 407 71 436.2 72C465.3 73 494.7 75 523.8 76C553 77 582 77 611 73.3C640 69.7 669 62.3 698 55C727 47.7 756 40.3 785.2 42.2C814.3 44 843.7 55 872.8 60.5C902 66 931 66 945.5 66L960 66L960 0L945.5 0C931 0 902 0 872.8 0C843.7 0 814.3 0 785.2 0C756 0 727 0 698 0C669 0 640 0 611 0C582 0 553 0 523.8 0C494.7 0 465.3 0 436.2 0C407 0 378 0 349 0C320 0 291 0 262 0C233 0 204 0 174.8 0C145.7 0 116.3 0 87.2 0C58 0 29 0 14.5 0L0 0Z" fill="#f7c784"></path><path d="M0 104L14.5 112C29 120 58 136 87.2 141.3C116.3 146.7 145.7 141.3 174.8 137.8C204 134.3 233 132.7 262 135.3C291 138 320 145 349 143.2C378 141.3 407 130.7 436.2 132.5C465.3 134.3 494.7 148.7 523.8 153.2C553 157.7 582 152.3 611 146C640 139.7 669 132.3 698 129.7C727 127 756 129 785.2 130.8C814.3 132.7 843.7 134.3 872.8 131.5C902 128.7 931 121.3 945.5 117.7L960 114L960 64L945.5 64C931 64 902 64 872.8 58.5C843.7 53 814.3 42 785.2 40.2C756 38.3 727 45.7 698 53C669 60.3 640 67.7 611 71.3C582 75 553 75 523.8 74C494.7 73 465.3 71 436.2 70C407 69 378 69 349 62.7C320 56.3 291 43.7 262 42.8C233 42 204 53 174.8 56.7C145.7 60.3 116.3 56.7 87.2 52.2C58 47.7 29 42.3 14.5 39.7L0 37Z" fill="#f4bd6f"></path><path d="M0 158L14.5 162.5C29 167 58 176 87.2 183.2C116.3 190.3 145.7 195.7 174.8 192.8C204 190 233 179 262 181.7C291 184.3 320 200.7 349 203.5C378 206.3 407 195.7 436.2 192C465.3 188.3 494.7 191.7 523.8 194.3C553 197 582 199 611 195.5C640 192 669 183 698 181.2C727 179.3 756 184.7 785.2 189.2C814.3 193.7 843.7 197.3 872.8 192C902 186.7 931 172.3 945.5 165.2L960 158L960 112L945.5 115.7C931 119.3 902 126.7 872.8 129.5C843.7 132.3 814.3 130.7 785.2 128.8C756 127 727 125 698 127.7C669 130.3 640 137.7 611 144C582 150.3 553 155.7 523.8 151.2C494.7 146.7 465.3 132.3 436.2 130.5C407 128.7 378 139.3 349 141.2C320 143 291 136 262 133.3C233 130.7 204 132.3 174.8 135.8C145.7 139.3 116.3 144.7 87.2 139.3C58 134 29 118 14.5 110L0 102Z" fill="#f2b259"></path><path d="M0 303L14.5 309.3C29 315.7 58 328.3 87.2 328.3C116.3 328.3 145.7 315.7 174.8 305.8C204 296 233 289 262 296.3C291 303.7 320 325.3 349 339.7C378 354 407 361 436.2 361C465.3 361 494.7 354 523.8 342.3C553 330.7 582 314.3 611 308C640 301.7 669 305.3 698 310.7C727 316 756 323 785.2 324.8C814.3 326.7 843.7 323.3 872.8 313.5C902 303.7 931 287.3 945.5 279.2L960 271L960 156L945.5 163.2C931 170.3 902 184.7 872.8 190C843.7 195.3 814.3 191.7 785.2 187.2C756 182.7 727 177.3 698 179.2C669 181 640 190 611 193.5C582 197 553 195 523.8 192.3C494.7 189.7 465.3 186.3 436.2 190C407 193.7 378 204.3 349 201.5C320 198.7 291 182.3 262 179.7C233 177 204 188 174.8 190.8C145.7 193.7 116.3 188.3 87.2 181.2C58 174 29 165 14.5 160.5L0 156Z" fill="#e4a449"></path><path d="M0 422L14.5 428.3C29 434.7 58 447.3 87.2 451.8C116.3 456.3 145.7 452.7 174.8 455.3C204 458 233 467 262 465.2C291 463.3 320 450.7 349 449.8C378 449 407 460 436.2 468.2C465.3 476.3 494.7 481.7 523.8 477.2C553 472.7 582 458.3 611 449.3C640 440.3 669 436.7 698 444.7C727 452.7 756 472.3 785.2 482.2C814.3 492 843.7 492 872.8 479.5C902 467 931 442 945.5 429.5L960 417L960 269L945.5 277.2C931 285.3 902 301.7 872.8 311.5C843.7 321.3 814.3 324.7 785.2 322.8C756 321 727 314 698 308.7C669 303.3 640 299.7 611 306C582 312.3 553 328.7 523.8 340.3C494.7 352 465.3 359 436.2 359C407 359 378 352 349 337.7C320 323.3 291 301.7 262 294.3C233 287 204 294 174.8 303.8C145.7 313.7 116.3 326.3 87.2 326.3C58 326.3 29 313.7 14.5 307.3L0 301Z" fill="#cc923f"></path><path d="M0 541L14.5 541C29 541 58 541 87.2 541C116.3 541 145.7 541 174.8 541C204 541 233 541 262 541C291 541 320 541 349 541C378 541 407 541 436.2 541C465.3 541 494.7 541 523.8 541C553 541 582 541 611 541C640 541 669 541 698 541C727 541 756 541 785.2 541C814.3 541 843.7 541 872.8 541C902 541 931 541 945.5 541L960 541L960 415L945.5 427.5C931 440 902 465 872.8 477.5C843.7 490 814.3 490 785.2 480.2C756 470.3 727 450.7 698 442.7C669 434.7 640 438.3 611 447.3C582 456.3 553 470.7 523.8 475.2C494.7 479.7 465.3 474.3 436.2 466.2C407 458 378 447 349 447.8C320 448.7 291 461.3 262 463.2C233 465 204 456 174.8 453.3C145.7 450.7 116.3 454.3 87.2 449.8C58 445.3 29 432.7 14.5 426.3L0 420Z" fill="#b58035"></path></svg>