<svg id="visual" viewBox="0 0 900 600" width="900" height="600" xmlns="http://www.w3.org/2000/svg" xmlns:xlink="http://www.w3.org/1999/xlink" version="1.1"><path d="M0 31L21.5 41C43 51 86 71 128.8 81C171.7 91 214.3 91 257.2 83C300 75 343 59 385.8 56C428.7 53 471.3 63 514.2 65C557 67 600 61 642.8 57C685.7 53 728.3 51 771.2 54C814 57 857 65 878.5 69L900 73L900 0L878.5 0C857 0 814 0 771.2 0C728.3 0 685.7 0 642.8 0C600 0 557 0 514.2 0C471.3 0 428.7 0 385.8 0C343 0 300 0 257.2 0C214.3 0 171.7 0 128.8 0C86 0 43 0 21.5 0L0 0Z" fill="#b58035"></path><path d="M0 145L21.5 151C43 157 86 169 128.8 171C171.7 173 214.3 165 257.2 158C300 151 343 145 385.8 158C428.7 171 471.3 203 514.2 216C557 229 600 223 642.8 211C685.7 199 728.3 181 771.2 190C814 199 857 235 878.5 253L900 271L900 71L878.5 67C857 63 814 55 771.2 52C728.3 49 685.7 51 642.8 55C600 59 557 65 514.2 63C471.3 61 428.7 51 385.8 54C343 57 300 73 257.2 81C214.3 89 171.7 89 128.8 79C86 69 43 49 21.5 39L0 29Z" fill="#f0ad4e"></path><path d="M0 301L21.5 302C43 303 86 305 128.8 298C171.7 291 214.3 275 257.2 268C300 261 343 263 385.8 283C428.7 303 471.3 341 514.2 363C557 385 600 391 642.8 375C685.7 359 728.3 321 771.2 308C814 295 857 307 878.5 313L900 319L900 269L878.5 251C857 233 814 197 771.2 188C728.3 179 685.7 197 642.8 209C600 221 557 227 514.2 214C471.3 201 428.7 169 385.8 156C343 143 300 149 257.2 156C214.3 163 171.7 171 128.8 169C86 167 43 155 21.5 149L0 143Z" fill="#f7c784"></path><path d="M0 331L21.5 336C43 341 86 351 128.8 345C171.7 339 214.3 317 257.2 316C300 315 343 335 385.8 354C428.7 373 471.3 391 514.2 404C557 417 600 425 642.8 409C685.7 393 728.3 353 771.2 341C814 329 857 345 878.5 353L900 361L900 317L878.5 311C857 305 814 293 771.2 306C728.3 319 685.7 357 642.8 373C600 389 557 383 514.2 361C471.3 339 428.7 301 385.8 281C343 261 300 259 257.2 266C214.3 273 171.7 289 128.8 296C86 303 43 301 21.5 300L0 299Z" fill="#f7c784"></path><path d="M0 493L21.5 503C43 513 86 533 128.8 531C171.7 529 214.3 505 257.2 496C300 487 343 493 385.8 494C428.7 495 471.3 491 514.2 502C557 513 600 539 642.8 551C685.7 563 728.3 561 771.2 549C814 537 857 515 878.5 504L900 493L900 359L878.5 351C857 343 814 327 771.2 339C728.3 351 685.7 391 642.8 407C600 423 557 415 514.2 402C471.3 389 428.7 371 385.8 352C343 333 300 313 257.2 314C214.3 315 171.7 337 128.8 343C86 349 43 339 21.5 334L0 329Z" fill="#f0ad4e"></path><path d="M0 601L21.5 601C43 601 86 601 128.8 601C171.7 601 214.3 601 257.2 601C300 601 343 601 385.8 601C428.7 601 471.3 601 514.2 601C557 601 600 601 642.8 601C685.7 601 728.3 601 771.2 601C814 601 857 601 878.5 601L900 601L900 491L878.5 502C857 513 814 535 771.2 547C728.3 559 685.7 561 642.8 549C600 537 557 511 514.2 500C471.3 489 428.7 493 385.8 492C343 491 300 485 257.2 494C214.3 503 171.7 527 128.8 529C86 531 43 511 21.5 501L0 491Z" fill="#b58035"></path></svg>