<svg id="visual" viewBox="0 0 540 960" width="540" height="960" xmlns="http://www.w3.org/2000/svg" xmlns:xlink="http://www.w3.org/1999/xlink" version="1.1"><path d="M507 960L504.2 944C501.3 928 495.7 896 495.7 864C495.7 832 501.3 800 502.3 768C503.3 736 499.7 704 500.5 672C501.3 640 506.7 608 505.7 576C504.7 544 497.3 512 492.8 480C488.3 448 486.7 416 489.5 384C492.3 352 499.7 320 503.3 288C507 256 507 224 505.2 192C503.3 160 499.7 128 501.3 96C503 64 510 32 513.5 16L517 0L540 0L540 16C540 32 540 64 540 96C540 128 540 160 540 192C540 224 540 256 540 288C540 320 540 352 540 384C540 416 540 448 540 480C540 512 540 544 540 576C540 608 540 640 540 672C540 704 540 736 540 768C540 800 540 832 540 864C540 896 540 928 540 944L540 960Z" fill="#b58035"></path><path d="M480 960L472.7 944C465.3 928 450.7 896 447 864C443.3 832 450.7 800 450.7 768C450.7 736 443.3 704 443.3 672C443.3 640 450.7 608 450.7 576C450.7 544 443.3 512 441.5 480C439.7 448 443.3 416 448.8 384C454.3 352 461.7 320 464.3 288C467 256 465 224 464 192C463 160 463 128 464.8 96C466.7 64 470.3 32 472.2 16L474 0L518 0L514.5 16C511 32 504 64 502.3 96C500.7 128 504.3 160 506.2 192C508 224 508 256 504.3 288C500.7 320 493.3 352 490.5 384C487.7 416 489.3 448 493.8 480C498.3 512 505.7 544 506.7 576C507.7 608 502.3 640 501.5 672C500.7 704 504.3 736 503.3 768C502.3 800 496.7 832 496.7 864C496.7 896 502.3 928 505.2 944L508 960Z" fill="#dfa047"></path><path d="M350 960L341 944C332 928 314 896 306.8 864C299.7 832 303.3 800 310.5 768C317.7 736 328.3 704 339.2 672C350 640 361 608 349.3 576C337.7 544 303.3 512 295.2 480C287 448 305 416 312.2 384C319.3 352 315.7 320 320.2 288C324.7 256 337.3 224 348.2 192C359 160 368 128 371.7 96C375.3 64 373.7 32 372.8 16L372 0L475 0L473.2 16C471.3 32 467.7 64 465.8 96C464 128 464 160 465 192C466 224 468 256 465.3 288C462.7 320 455.3 352 449.8 384C444.3 416 440.7 448 442.5 480C444.3 512 451.7 544 451.7 576C451.7 608 444.3 640 444.3 672C444.3 704 451.7 736 451.7 768C451.7 800 444.3 832 448 864C451.7 896 466.3 928 473.7 944L481 960Z" fill="#f3b865"></path><path d="M291 960L279.2 944C267.3 928 243.7 896 236.3 864C229 832 238 800 249.8 768C261.7 736 276.3 704 283.7 672C291 640 291 608 280.2 576C269.3 544 247.7 512 242.2 480C236.7 448 247.3 416 252.7 384C258 352 258 320 260.7 288C263.3 256 268.7 224 275.8 192C283 160 292 128 301 96C310 64 319 32 323.5 16L328 0L373 0L373.8 16C374.7 32 376.3 64 372.7 96C369 128 360 160 349.2 192C338.3 224 325.7 256 321.2 288C316.7 320 320.3 352 313.2 384C306 416 288 448 296.2 480C304.3 512 338.7 544 350.3 576C362 608 351 640 340.2 672C329.3 704 318.7 736 311.5 768C304.3 800 300.7 832 307.8 864C315 896 333 928 342 944L351 960Z" fill="#f7c784"></path><path d="M204 960L193.2 944C182.3 928 160.7 896 157.2 864C153.7 832 168.3 800 178.3 768C188.3 736 193.7 704 203.5 672C213.3 640 227.7 608 225 576C222.3 544 202.7 512 194.5 480C186.3 448 189.7 416 183.3 384C177 352 161 320 156.5 288C152 256 159 224 171.5 192C184 160 202 128 213.8 96C225.7 64 231.3 32 234.2 16L237 0L329 0L324.5 16C320 32 311 64 302 96C293 128 284 160 276.8 192C269.7 224 264.3 256 261.7 288C259 320 259 352 253.7 384C248.3 416 237.7 448 243.2 480C248.7 512 270.3 544 281.2 576C292 608 292 640 284.7 672C277.3 704 262.7 736 250.8 768C239 800 230 832 237.3 864C244.7 896 268.3 928 280.2 944L292 960Z" fill="#f7c784"></path><path d="M80 960L78.2 944C76.3 928 72.7 896 75.3 864C78 832 87 800 90.7 768C94.3 736 92.7 704 86.3 672C80 640 69 608 66.3 576C63.7 544 69.3 512 71.2 480C73 448 71 416 70 384C69 352 69 320 68.2 288C67.3 256 65.7 224 70.2 192C74.7 160 85.3 128 93.3 96C101.3 64 106.7 32 109.3 16L112 0L238 0L235.2 16C232.3 32 226.7 64 214.8 96C203 128 185 160 172.5 192C160 224 153 256 157.5 288C162 320 178 352 184.3 384C190.7 416 187.3 448 195.5 480C203.7 512 223.3 544 226 576C228.7 608 214.3 640 204.5 672C194.7 704 189.3 736 179.3 768C169.3 800 154.7 832 158.2 864C161.7 896 183.3 928 194.2 944L205 960Z" fill="#f3b865"></path><path d="M48 960L44.3 944C40.7 928 33.3 896 30.5 864C27.7 832 29.3 800 29.3 768C29.3 736 27.7 704 27.7 672C27.7 640 29.3 608 33 576C36.7 544 42.3 512 40.7 480C39 448 30 416 28.2 384C26.3 352 31.7 320 33.3 288C35 256 33 224 33 192C33 160 35 128 37.8 96C40.7 64 44.3 32 46.2 16L48 0L113 0L110.3 16C107.7 32 102.3 64 94.3 96C86.3 128 75.7 160 71.2 192C66.7 224 68.3 256 69.2 288C70 320 70 352 71 384C72 416 74 448 72.2 480C70.3 512 64.7 544 67.3 576C70 608 81 640 87.3 672C93.7 704 95.3 736 91.7 768C88 800 79 832 76.3 864C73.7 896 77.3 928 79.2 944L81 960Z" fill="#dfa047"></path><path d="M0 960L0 944C0 928 0 896 0 864C0 832 0 800 0 768C0 736 0 704 0 672C0 640 0 608 0 576C0 544 0 512 0 480C0 448 0 416 0 384C0 352 0 320 0 288C0 256 0 224 0 192C0 160 0 128 0 96C0 64 0 32 0 16L0 0L49 0L47.2 16C45.3 32 41.7 64 38.8 96C36 128 34 160 34 192C34 224 36 256 34.3 288C32.7 320 27.3 352 29.2 384C31 416 40 448 41.7 480C43.3 512 37.7 544 34 576C30.3 608 28.7 640 28.7 672C28.7 704 30.3 736 30.3 768C30.3 800 28.7 832 31.5 864C34.3 896 41.7 928 45.3 944L49 960Z" fill="#b58035"></path></svg>