<svg id="visual" viewBox="0 0 960 540" width="960" height="540" xmlns="http://www.w3.org/2000/svg" xmlns:xlink="http://www.w3.org/1999/xlink" version="1.1"><path d="M0 125L11.5 121.5C23 118 46 111 68.8 104.7C91.7 98.3 114.3 92.7 137.2 89C160 85.3 183 83.7 205.8 82C228.7 80.3 251.3 78.7 274.2 80.5C297 82.3 320 87.7 342.8 95.7C365.7 103.7 388.3 114.3 411.2 114.3C434 114.3 457 103.7 480 97.3C503 91 526 89 548.8 89.8C571.7 90.7 594.3 94.3 617.2 102.5C640 110.7 663 123.3 685.8 125.2C708.7 127 731.3 118 754.2 114.3C777 110.7 800 112.3 822.8 116C845.7 119.7 868.3 125.3 891.2 123.7C914 122 937 113 948.5 108.5L960 104L960 0L948.5 0C937 0 914 0 891.2 0C868.3 0 845.7 0 822.8 0C800 0 777 0 754.2 0C731.3 0 708.7 0 685.8 0C663 0 640 0 617.2 0C594.3 0 571.7 0 548.8 0C526 0 503 0 480 0C457 0 434 0 411.2 0C388.3 0 365.7 0 342.8 0C320 0 297 0 274.2 0C251.3 0 228.7 0 205.8 0C183 0 160 0 137.2 0C114.3 0 91.7 0 68.8 0C46 0 23 0 11.5 0L0 0Z" fill="#f7c784"></path><path d="M0 352L11.5 345.7C23 339.3 46 326.7 68.8 315.8C91.7 305 114.3 296 137.2 296C160 296 183 305 205.8 303.2C228.7 301.3 251.3 288.7 274.2 284.2C297 279.7 320 283.3 342.8 277.2C365.7 271 388.3 255 411.2 251.5C434 248 457 257 480 272.2C503 287.3 526 308.7 548.8 305C571.7 301.3 594.3 272.7 617.2 263.7C640 254.7 663 265.3 685.8 261.7C708.7 258 731.3 240 754.2 245.5C777 251 800 280 822.8 295.3C845.7 310.7 868.3 312.3 891.2 304.2C914 296 937 278 948.5 269L960 260L960 102L948.5 106.5C937 111 914 120 891.2 121.7C868.3 123.3 845.7 117.7 822.8 114C800 110.3 777 108.7 754.2 112.3C731.3 116 708.7 125 685.8 123.2C663 121.3 640 108.7 617.2 100.5C594.3 92.3 571.7 88.7 548.8 87.8C526 87 503 89 480 95.3C457 101.7 434 112.3 411.2 112.3C388.3 112.3 365.7 101.7 342.8 93.7C320 85.7 297 80.3 274.2 78.5C251.3 76.7 228.7 78.3 205.8 80C183 81.7 160 83.3 137.2 87C114.3 90.7 91.7 96.3 68.8 102.7C46 109 23 116 11.5 119.5L0 123Z" fill="#f3b660"></path><path d="M0 471L11.5 468.3C23 465.7 46 460.3 68.8 454.8C91.7 449.3 114.3 443.7 137.2 440C160 436.3 183 434.7 205.8 433.8C228.7 433 251.3 433 274.2 435.7C297 438.3 320 443.7 342.8 441.8C365.7 440 388.3 431 411.2 426.5C434 422 457 422 480 432C503 442 526 462 548.8 462C571.7 462 594.3 442 617.2 438.3C640 434.7 663 447.3 685.8 452.8C708.7 458.3 731.3 456.7 754.2 450.3C777 444 800 433 822.8 433.8C845.7 434.7 868.3 447.3 891.2 449.2C914 451 937 442 948.5 437.5L960 433L960 258L948.5 267C937 276 914 294 891.2 302.2C868.3 310.3 845.7 308.7 822.8 293.3C800 278 777 249 754.2 243.5C731.3 238 708.7 256 685.8 259.7C663 263.3 640 252.7 617.2 261.7C594.3 270.7 571.7 299.3 548.8 303C526 306.7 503 285.3 480 270.2C457 255 434 246 411.2 249.5C388.3 253 365.7 269 342.8 275.2C320 281.3 297 277.7 274.2 282.2C251.3 286.7 228.7 299.3 205.8 301.2C183 303 160 294 137.2 294C114.3 294 91.7 303 68.8 313.8C46 324.7 23 337.3 11.5 343.7L0 350Z" fill="#dc9e46"></path><path d="M0 541L11.5 541C23 541 46 541 68.8 541C91.7 541 114.3 541 137.2 541C160 541 183 541 205.8 541C228.7 541 251.3 541 274.2 541C297 541 320 541 342.8 541C365.7 541 388.3 541 411.2 541C434 541 457 541 480 541C503 541 526 541 548.8 541C571.7 541 594.3 541 617.2 541C640 541 663 541 685.8 541C708.7 541 731.3 541 754.2 541C777 541 800 541 822.8 541C845.7 541 868.3 541 891.2 541C914 541 937 541 948.5 541L960 541L960 431L948.5 435.5C937 440 914 449 891.2 447.2C868.3 445.3 845.7 432.7 822.8 431.8C800 431 777 442 754.2 448.3C731.3 454.7 708.7 456.3 685.8 450.8C663 445.3 640 432.7 617.2 436.3C594.3 440 571.7 460 548.8 460C526 460 503 440 480 430C457 420 434 420 411.2 424.5C388.3 429 365.7 438 342.8 439.8C320 441.7 297 436.3 274.2 433.7C251.3 431 228.7 431 205.8 431.8C183 432.7 160 434.3 137.2 438C114.3 441.7 91.7 447.3 68.8 452.8C46 458.3 23 463.7 11.5 466.3L0 469Z" fill="#b58035"></path></svg>