<svg id="visual" viewBox="0 0 960 540" width="960" height="540" xmlns="http://www.w3.org/2000/svg" xmlns:xlink="http://www.w3.org/1999/xlink" version="1.1"><path d="M0 33L16 35.8C32 38.7 64 44.3 96 44.3C128 44.3 160 38.7 192 37.7C224 36.7 256 40.3 288 39.5C320 38.7 352 33.3 384 34.3C416 35.3 448 42.7 480 47.2C512 51.7 544 53.3 576 50.5C608 47.7 640 40.3 672 36.7C704 33 736 33 768 34.8C800 36.7 832 40.3 864 38.7C896 37 928 30 944 26.5L960 23L960 0L944 0C928 0 896 0 864 0C832 0 800 0 768 0C736 0 704 0 672 0C640 0 608 0 576 0C544 0 512 0 480 0C448 0 416 0 384 0C352 0 320 0 288 0C256 0 224 0 192 0C160 0 128 0 96 0C64 0 32 0 16 0L0 0Z" fill="#60dbb6"></path><path d="M0 60L16 67.3C32 74.7 64 89.3 96 93C128 96.7 160 89.3 192 89.3C224 89.3 256 96.7 288 96.7C320 96.7 352 89.3 384 89.3C416 89.3 448 96.7 480 98.5C512 100.3 544 96.7 576 91.2C608 85.7 640 78.3 672 75.7C704 73 736 75 768 76C800 77 832 77 864 75.2C896 73.3 928 69.7 944 67.8L960 66L960 21L944 24.5C928 28 896 35 864 36.7C832 38.3 800 34.7 768 32.8C736 31 704 31 672 34.7C640 38.3 608 45.7 576 48.5C544 51.3 512 49.7 480 45.2C448 40.7 416 33.3 384 32.3C352 31.3 320 36.7 288 37.5C256 38.3 224 34.7 192 35.7C160 36.7 128 42.3 96 42.3C64 42.3 32 36.7 16 33.8L0 31Z" fill="#4fd6ae"></path><path d="M0 190L16 199C32 208 64 226 96 233.2C128 240.3 160 236.7 192 229.5C224 222.3 256 211.7 288 200.8C320 190 352 179 384 190.7C416 202.3 448 236.7 480 244.8C512 253 544 235 576 227.8C608 220.7 640 224.3 672 219.8C704 215.3 736 202.7 768 191.8C800 181 832 172 864 168.3C896 164.7 928 166.3 944 167.2L960 168L960 64L944 65.8C928 67.7 896 71.3 864 73.2C832 75 800 75 768 74C736 73 704 71 672 73.7C640 76.3 608 83.7 576 89.2C544 94.7 512 98.3 480 96.5C448 94.7 416 87.3 384 87.3C352 87.3 320 94.7 288 94.7C256 94.7 224 87.3 192 87.3C160 87.3 128 94.7 96 91C64 87.3 32 72.7 16 65.3L0 58Z" fill="#3cd1a5"></path><path d="M0 249L16 260.8C32 272.7 64 296.3 96 303.7C128 311 160 302 192 290.2C224 278.3 256 263.7 288 256.3C320 249 352 249 384 259.8C416 270.7 448 292.3 480 297.8C512 303.3 544 292.7 576 287.3C608 282 640 282 672 279.3C704 276.7 736 271.3 768 264.2C800 257 832 248 864 239C896 230 928 221 944 216.5L960 212L960 166L944 165.2C928 164.3 896 162.7 864 166.3C832 170 800 179 768 189.8C736 200.7 704 213.3 672 217.8C640 222.3 608 218.7 576 225.8C544 233 512 251 480 242.8C448 234.7 416 200.3 384 188.7C352 177 320 188 288 198.8C256 209.7 224 220.3 192 227.5C160 234.7 128 238.3 96 231.2C64 224 32 206 16 197L0 188Z" fill="#23cc9c"></path><path d="M0 336L16 346.8C32 357.7 64 379.3 96 382.8C128 386.3 160 371.7 192 361.7C224 351.7 256 346.3 288 336.5C320 326.7 352 312.3 384 315C416 317.7 448 337.3 480 345.5C512 353.7 544 350.3 576 356.7C608 363 640 379 672 383.5C704 388 736 381 768 368.5C800 356 832 338 864 326.2C896 314.3 928 308.7 944 305.8L960 303L960 210L944 214.5C928 219 896 228 864 237C832 246 800 255 768 262.2C736 269.3 704 274.7 672 277.3C640 280 608 280 576 285.3C544 290.7 512 301.3 480 295.8C448 290.3 416 268.7 384 257.8C352 247 320 247 288 254.3C256 261.7 224 276.3 192 288.2C160 300 128 309 96 301.7C64 294.3 32 270.7 16 258.8L0 247Z" fill="#0ac292"></path><path d="M0 460L16 461.8C32 463.7 64 467.3 96 464.7C128 462 160 453 192 449.3C224 445.7 256 447.3 288 453.7C320 460 352 471 384 473.7C416 476.3 448 470.7 480 468.8C512 467 544 469 576 470C608 471 640 471 672 471.8C704 472.7 736 474.3 768 469.8C800 465.3 832 454.7 864 446.7C896 438.7 928 433.3 944 430.7L960 428L960 301L944 303.8C928 306.7 896 312.3 864 324.2C832 336 800 354 768 366.5C736 379 704 386 672 381.5C640 377 608 361 576 354.7C544 348.3 512 351.7 480 343.5C448 335.3 416 315.7 384 313C352 310.3 320 324.7 288 334.5C256 344.3 224 349.7 192 359.7C160 369.7 128 384.3 96 380.8C64 377.3 32 355.7 16 344.8L0 334Z" fill="#07b287"></path><path d="M0 492L16 495.7C32 499.3 64 506.7 96 509.5C128 512.3 160 510.7 192 510.7C224 510.7 256 512.3 288 512.3C320 512.3 352 510.7 384 507C416 503.3 448 497.7 480 499.3C512 501 544 510 576 511.8C608 513.7 640 508.3 672 506.7C704 505 736 507 768 507C800 507 832 505 864 502.2C896 499.3 928 495.7 944 493.8L960 492L960 426L944 428.7C928 431.3 896 436.7 864 444.7C832 452.7 800 463.3 768 467.8C736 472.3 704 470.7 672 469.8C640 469 608 469 576 468C544 467 512 465 480 466.8C448 468.7 416 474.3 384 471.7C352 469 320 458 288 451.7C256 445.3 224 443.7 192 447.3C160 451 128 460 96 462.7C64 465.3 32 461.7 16 459.8L0 458Z" fill="#04a37b"></path><path d="M0 541L16 541C32 541 64 541 96 541C128 541 160 541 192 541C224 541 256 541 288 541C320 541 352 541 384 541C416 541 448 541 480 541C512 541 544 541 576 541C608 541 640 541 672 541C704 541 736 541 768 541C800 541 832 541 864 541C896 541 928 541 944 541L960 541L960 490L944 491.8C928 493.7 896 497.3 864 500.2C832 503 800 505 768 505C736 505 704 503 672 504.7C640 506.3 608 511.7 576 509.8C544 508 512 499 480 497.3C448 495.7 416 501.3 384 505C352 508.7 320 510.3 288 510.3C256 510.3 224 508.7 192 508.7C160 508.7 128 510.3 96 507.5C64 504.7 32 497.3 16 493.7L0 490Z" fill="#039470"></path></svg>